<?xml version="1.0" encoding="utf-8"?>
<!-- Svg Vector Icons : http://www.onlinewebfonts.com/icon -->
<!DOCTYPE svg PUBLIC "-//W3C//DTD SVG 1.1//EN" "http://www.w3.org/Graphics/SVG/1.1/DTD/svg11.dtd">
<svg version="1.1" xmlns="http://www.w3.org/2000/svg" xmlns:xlink="http://www.w3.org/1999/xlink" x="0px" y="0px" viewBox="0 0 1000 1000" enable-background="new 0 0 1000 1000" xml:space="preserve">
<metadata> Svg Vector Icons : http://www.onlinewebfonts.com/icon </metadata>
<g><path d="M934.7,697.2h-12.4c-0.2-10.2-1.7-20-4.1-29.5h16.5c17.1,0,25.8-8.7,25.8-25.8v-68.3c-0.2-11-7.2-15.4-23.3-22.9c-3.3-1.6-6.6-8-9.5-9.6c-16.7-8.9-72.2-45.4-88.7-59.4c-8.8-7.5-36.2-37.6-45.8-60.9c-4-9.6-21.9-40.7-39.3-70.7c-18.5-32-37.6-65.1-46.4-83.2c-12.6-26.1-19-26.1-34.4-26.1l-3.9,0l-160.5,0L348.9,667.7h299.2c-2.4,9.5-3.9,19.3-4.1,29.5H327.7c-4.8,0-9.3-2.4-12.1-6.3c-2.8-3.9-3.4-9-1.7-13.5l170.8-456.5c2.1-5.8,7.6-9.6,13.8-9.6l172.7,0l1.9,0c22.8,0,41.8,3.1,60.9,42.7c8.3,17.2,27.1,49.8,45.3,81.3c19.5,33.7,36.3,62.9,41,74.3c7.2,17.5,31.1,44,37.7,49.7c14.8,12.6,68.7,52.9,83.6,60.9c2.5,1.3,5.2,2.6,8,3.9c15.8,7.4,39.8,18.6,40.3,49.4v68.6C990,675.5,968.3,697.2,934.7,697.2z M24.7,313.1c-8.1,0-14.7-6.6-14.7-14.7c0-8.1,6.6-14.7,14.7-14.7h396.8l-11.3,29.5H24.7z M55.1,401.5h312L355.8,431H55.1c-8.1,0-14.7-6.6-14.7-14.7C40.3,408.1,46.9,401.5,55.1,401.5z M85.4,518.6H313L301.7,548H85.4c-8.1,0-14.7-6.6-14.7-14.7C70.7,525.2,77.3,518.6,85.4,518.6z M502.2,511.1c0,12.5-10.2,22.7-22.7,22.7c-12.5,0-22.7-10.1-22.7-22.7c0-12.5,10.1-22.7,22.7-22.7C492,488.4,502.2,498.6,502.2,511.1z M531.4,278.5c2.1-5.9,7.6-9.8,13.9-9.8h117.3c5.5,0,10.6,3.1,13.1,8l75.8,147.6c2.4,4.6,2.1,10.1-0.6,14.5c-2.7,4.4-7.4,7-12.6,7c0,0-0.1,0-0.1,0l-244.2,0.4c-4.8-0.1-9.2-2.4-11.9-6.3c-2.7-3.9-3.4-8.9-1.8-13.4L531.4,278.5z M714.1,416.1l-60.5-117.9h-97.8L515,417L714.1,416.1z M788.4,590.4c54.8,0,99.2,44.4,99.2,99.2c0,54.8-44.4,99.2-99.2,99.2s-99.2-44.4-99.2-99.2C689.2,634.8,733.6,590.4,788.4,590.4z M788.3,753.9c35.5,0,64.3-28.8,64.3-64.3c0-35.5-28.8-64.3-64.3-64.3c-35.5,0-64.3,28.8-64.3,64.3C724,725.1,752.8,753.9,788.3,753.9z"/></g>
</svg>