<?xml version="1.0" encoding="utf-8"?>
<!-- Svg Vector Icons : http://www.onlinewebfonts.com/icon -->
<!DOCTYPE svg PUBLIC "-//W3C//DTD SVG 1.1//EN" "http://www.w3.org/Graphics/SVG/1.1/DTD/svg11.dtd">
<svg version="1.1" xmlns="http://www.w3.org/2000/svg" xmlns:xlink="http://www.w3.org/1999/xlink" x="0px" y="0px" viewBox="0 0 1000 1000" enable-background="new 0 0 1000 1000" xml:space="preserve">
<metadata> Svg Vector Icons : http://www.onlinewebfonts.com/icon </metadata>
<g><path d="M892.1,170.6h-504c-56.8,0-76.4,22.6-87.1,48.1h-54.4c-38.2,0-148.1,88.4-236.6,163.8v43.3C82.3,364,218.5,250.8,247.8,250.8h40.1h6.3c-3.1,22.9-1.3,269.3-1.3,269.3c-8.7,3.4-38.9,24-38.9,24l0.1,0.3c-3.2,2.9-5.2,7.3-5.2,12c0,9.1,7.3,16.3,16.3,16.3c4.6,0,8.7-1.9,11.6-4.9c15.3-9.1,66-38.6,89.8-46.5c119.1-47.2,203.2-105.6,237.2-68.4c0,0,25.2,31-7.8,88.6c-34.7,39.8-112,41.6-175.1,111c-55.4,62.1-141.1,113.3-183,113.3H10v32h231.4c24.8,0,80.8-24.4,87.5-30.6c0,0,11.1,32,45.6,39.1c34.5,7,67.3-9.4,77.4-15.6c0,0,67.7,87.3,143.4,0c-1.2,1.4,99.5,79.7,136.1-116.2h170.5c57.2,0,88.2-32.4,88.2-95.8V283.4C990.1,210,969.4,170.6,892.1,170.6z M424.3,768.9c-32,12.3-62.7,8.3-66.3-19.2c0,0,52.6-36.9,86.7-74.6H456C456.1,675.1,456.4,756.7,424.3,768.9z M377.4,204h516c76-4.7,63.3,73.3,63.3,73.3H325.4C325.8,274.9,314.3,204,377.4,204z M555.1,784.5c-37.7,24.4-55.5,9.1-82.7-21.2c0,0,16.6-37.3,16.3-88.1h94.6C583.3,675.2,592.6,760.1,555.1,784.5z M662.5,763.3c-24.5,23.7-44.3,4.2-53-3.2c0,0,12.8-48.6,6.6-85.2h82.2C698.4,674.9,697.8,722.2,662.5,763.3z M957.1,576.9c0,43.2-14.4,66.1-48.5,66.1H482.2c38.6-32.9,129.2-45.6,148.2-96.7c0,0,51.5-104.1-35-135.3c-68.7-12.3-97.7,26.2-270.1,93V352.8h631.7V576.9L957.1,576.9z"/></g>
</svg>