<?xml version="1.0" encoding="utf-8"?>
<!-- Svg Vector Icons : http://www.onlinewebfonts.com/icon -->
<!DOCTYPE svg PUBLIC "-//W3C//DTD SVG 1.1//EN" "http://www.w3.org/Graphics/SVG/1.1/DTD/svg11.dtd">
<svg version="1.1" xmlns="http://www.w3.org/2000/svg" xmlns:xlink="http://www.w3.org/1999/xlink" x="0px" y="0px" viewBox="0 0 1000 1000" enable-background="new 0 0 1000 1000" xml:space="preserve">
<metadata> Svg Vector Icons : http://www.onlinewebfonts.com/icon </metadata>
<g><g transform="translate(0.000000,512.000000) scale(0.100000,-0.100000)"><path d="M2833.3,4961.5c-47.9-34.5-576.9-446.5-1172.9-914.2C920.7,3470.5,570,3185,562.3,3154.3c-5.7-24.9-3.8-57.5,5.8-72.8c7.7-15.3,534.7-435,1170.9-931.4c1180.5-923.7,1215-948.6,1284-879.6c17.3,17.2,23,164.8,23,548.1v527l647.8-11.5c730.2-11.5,1100-46,1575.3-139.9c473.3-95.8,1151.8-302.8,1558.1-475.3C8122.7,1165.1,8870.1-36.6,8601.8-1130.9c-49.8-201.2-212.7-542.3-341.1-711c-53.7-70.9-180.1-210.8-279.8-308.6c-164.8-162.9-182.1-187.8-182.1-251.1c0-92,24.9-138,99.7-176.3c86.2-44.1,187.8-24.9,306.6,61.3c479.1,346.9,837.5,856.7,1048.3,1492.9c389,1171,161,2470.3-576.9,3298.2c-528.9,594.1-1510.2,1144.1-2468.4,1387.5c-674.6,170.6-1209.3,224.2-2399.4,243.4l-762.7,11.5v521.3c0,481-1.9,523.2-34.5,551.9C2961.7,5036.3,2929.2,5030.5,2833.3,4961.5z"/><path d="M2750.9,178.1c-1368.3-486.8-1360.7-483-1280.2-574.9c21.1-23,513.6-207,1312.8-490.6l1282.1-452.3l1285.9,454.2c709.1,249.1,1299.3,461.9,1312.8,471.4c11.5,9.6,23,38.3,23,61.3c0,23-11.5,51.7-23,63.2c-30.7,24.9-2502.9,900.7-2577.6,914.2C4048.4,630.4,3647.8,496.2,2750.9,178.1z"/><path d="M1066.4-818.5c-30.7-32.6-32.6-161-32.6-1458.4c0-1527.4-1.9-1512.1,97.7-1575.3c24.9-17.3,626.7-235.7,1337.7-486.8c979.3-345,1299.4-452.3,1322.3-437c26.8,17.2,30.7,164.8,30.7,1529.3v1512.1l-1341.5,475.3C1742.9-998.6,1129.6-784,1118.1-784C1106.6-784,1083.6-799.3,1066.4-818.5z"/><path d="M5642.8-1261.2l-1341.5-475.3l-5.7-1473.7c-1.9-810.7,0-1492.9,5.7-1515.9c5.7-23,24.9-46,46-53.7c57.5-17.3,2623.6,898.8,2684.9,958.2l47.9,47.9l5.7,1464.2c3.8,1316.6,1.9,1468-26.8,1494.8c-15.3,17.3-40.3,30.7-51.7,28.7C6993.9-785.9,6380.7-1000.5,5642.8-1261.2z"/></g></g>
</svg>